{
.appVersion = "126";
DisplayStrings = (
","
);
copyright = "Copyright 2015 The Roboto Mono Project Authors (https://github.com/googlefonts/robotomono)";
date = "2008-09-12 12:29:34 +0000";
designer = Google;
designerURL = "Christian Robertson";
familyName = "Numeric Mono";
featurePrefixes = (
{
automatic = 1;
code = "languagesystem DFLT dflt;\012languagesystem latn dflt;\012languagesystem latn ROM;\012languagesystem latn MOL;\012languagesystem latn CAT;\012";
name = Languagesystems;
}
);
features = (
{
automatic = 1;
code = "feature locl;\012feature frac;\012feature ordn;\012";
name = aalt;
},
{
automatic = 1;
code = "script latn;\012language ROM;\012sub Scedilla by Scommaaccent;\012sub scedilla by scommaaccent;\012sub Tcedilla by Tcommaaccent;\012sub tcedilla by tcommaaccent;\012language MOL;\012sub Scedilla by Scommaaccent;\012sub scedilla by scommaaccent;\012sub Tcedilla by Tcommaaccent;\012sub tcedilla by tcommaaccent;\012language CAT;\012sub  l' periodcentered' l by ldot;\012sub  L' periodcentered' L by Ldot;\012";
name = locl;
},
{
automatic = 1;
code = "sub one slash eight by oneeighth;\012sub one slash four by onequarter;\012sub three slash eight by threeeighths;\012sub one slash two by onehalf;\012sub five slash eight by fiveeighths;\012sub three slash four by threequarters;\012sub seven slash eight by seveneighths;\012";
name = frac;
},
{
automatic = 1;
code = "sub [zero one two three four five six seven eight nine] [A a]' by ordfeminine;\012sub [zero one two three four five six seven eight nine] [O o]' by ordmasculine;\012sub N o period by numero;\012";
name = ordn;
}
);
fontMaster = (
{
ascender = 2146;
capHeight = 1456;
customParameters = (
{
name = "Prep Table Assembly";
value = "PUSHW[ ]	/* 1 value pushed */\012511 \012SCANCTRL[ ]	/* ScanConversionControl */\012PUSHB[ ]	/* 1 value pushed */\0124 \012SCANTYPE[ ]	/* ScanType */";
}
);
descender = -555;
id = "64CCE0F5-9A48-4B34-993D-1028D19A3A1F";
weight = Bold;
weightValue = 700;
widthValue = 5;

glyphs = (
{
glyphname = zero;
lastChange = "2025-06-23 00:29:03 +0000";
layers = (
{
layerId = "64CCE0F5-9A48-4B34-993D-1028D19A3A1F";
paths = (
{
closed = 1;
nodes = (
"1089 460 OFFCURVE",
"1078.167 377.167 OFFCURVE",
"1056.5 305.5 CURVE SMOOTH",
"1034.833 233.833 OFFCURVE",
"1003.667 174 OFFCURVE",
"963 126 CURVE SMOOTH",
"922.333 77.333 OFFCURVE",
"872.667 40.667 OFFCURVE",
"814 16 CURVE SMOOTH",
"755.333 -8.667 OFFCURVE",
"689.333 -21 OFFCURVE",
"616 -21 CURVE SMOOTH",
"543.333 -21 OFFCURVE",
"477.667 -8.667 OFFCURVE",
"419 16 CURVE SMOOTH",
"360.333 40.667 OFFCURVE",
"310.667 77.333 OFFCURVE",
"270 126 CURVE SMOOTH",
"228.667 174 OFFCURVE",
"196.833 233.833 OFFCURVE",
"174.5 305.5 CURVE SMOOTH",
"152.167 377.167 OFFCURVE",
"141 460 OFFCURVE",
"141 554 CURVE SMOOTH",
"141 902 LINE SMOOTH",
"141 996 OFFCURVE",
"152 1078.833 OFFCURVE",
"174 1150.5 CURVE SMOOTH",
"196 1222.167 OFFCURVE",
"227.667 1282.333 OFFCURVE",
"269 1331 CURVE SMOOTH",
"309.667 1379 OFFCURVE",
"359.167 1415.333 OFFCURVE",
"417.5 1440 CURVE SMOOTH",
"475.833 1464.667 OFFCURVE",
"541.333 1477 OFFCURVE",
"614 1477 CURVE SMOOTH",
"687.333 1477 OFFCURVE",
"753.333 1464.667 OFFCURVE",
"812 1440 CURVE SMOOTH",
"870.667 1415.333 OFFCURVE",
"920.667 1379 OFFCURVE",
"962 1331 CURVE SMOOTH",
"1002.667 1282.333 OFFCURVE",
"1034 1222.167 OFFCURVE",
"1056 1150.5 CURVE SMOOTH",
"1078 1078.833 OFFCURVE",
"1089 996 OFFCURVE",
"1089 902 CURVE SMOOTH",
"1089 554 LINE",
"1089 554 LINE"
);
},
{
closed = 1;
nodes = (
"809 963 LINE",
"808 1018 OFFCURVE",
"802 1065 OFFCURVE",
"792 1104 CURVE SMOOTH",
"781 1143 OFFCURVE",
"766 1174 OFFCURVE",
"746 1197 CURVE SMOOTH",
"731 1216 OFFCURVE",
"712 1230 OFFCURVE",
"690 1239 CURVE SMOOTH",
"667 1248 OFFCURVE",
"642 1252 OFFCURVE",
"614 1252 CURVE SMOOTH",
"583 1252 OFFCURVE",
"555 1246 OFFCURVE",
"532 1235 CURVE SMOOTH",
"508 1223 OFFCURVE",
"488 1205 OFFCURVE",
"472 1182 CURVE SMOOTH",
"455 1157 OFFCURVE",
"442 1125 OFFCURVE",
"434 1086 CURVE SMOOTH",
"425 1047 OFFCURVE",
"421 1000 OFFCURVE",
"421 946 CURVE SMOOTH",
"421 785 LINE SMOOTH",
"421 753 OFFCURVE",
"421 732 OFFCURVE",
"421 721 CURVE SMOOTH",
"421 710 OFFCURVE",
"421 695 OFFCURVE",
"421 674 CURVE",
"421 674 LINE",
"421 486 LINE",
"422.333 442 OFFCURVE",
"426.833 403 OFFCURVE",
"434.5 369 CURVE SMOOTH",
"442.167 335 OFFCURVE",
"453 306.667 OFFCURVE",
"467 284 CURVE SMOOTH",
"483 256.667 OFFCURVE",
"503.333 236.333 OFFCURVE",
"528 223 CURVE SMOOTH",
"552.667 209.667 OFFCURVE",
"582 203 OFFCURVE",
"616 203 CURVE SMOOTH",
"647.333 203 OFFCURVE",
"675 208.833 OFFCURVE",
"699 220.5 CURVE SMOOTH",
"723 232.167 OFFCURVE",
"743 250 OFFCURVE",
"759 274 CURVE SMOOTH",
"775.667 299.333 OFFCURVE",
"788.167 331.833 OFFCURVE",
"796.5 371.5 CURVE SMOOTH",
"804.833 411.167 OFFCURVE",
"809 458 OFFCURVE",
"809 512 CURVE",
"809 512 LINE",
"809 681 LINE SMOOTH",
"809 703 OFFCURVE",
"809 719.167 OFFCURVE",
"809 729.5 CURVE SMOOTH",
"809 739.833 OFFCURVE",
"809 754.667 OFFCURVE",
"809 774 CURVE"
);
}
);
width = 1229;
}
);
note = zero;
unicode = 0030;
},
{
glyphname = one;
layers = (
{
layerId = "64CCE0F5-9A48-4B34-993D-1028D19A3A1F";
paths = (
{
closed = 1;
nodes = (
"822 0 LINE",
"541 0 LINE",
"541 1117 LINE",
"173 985 LINE",
"173 1227 LINE",
"807 1456 LINE",
"822 1456 LINE",
"822 0 LINE"
);
}
);
width = 1229;
}
);
note = one;
unicode = 0031;
},
{
glyphname = two;
layers = (
{
layerId = "64CCE0F5-9A48-4B34-993D-1028D19A3A1F";
paths = (
{
closed = 1;
nodes = (
"1093 0 LINE",
"100 0 LINE",
"100 190 LINE",
"571 696 LINE SMOOTH",
"607.667 736 OFFCURVE",
"638.667 772.333 OFFCURVE",
"664 805 CURVE SMOOTH",
"689.333 837.667 OFFCURVE",
"710 867.667 OFFCURVE",
"726 895 CURVE SMOOTH",
"741.333 921.667 OFFCURVE",
"752.5 946.667 OFFCURVE",
"759.5 970 CURVE SMOOTH",
"766.5 993.333 OFFCURVE",
"770 1016 OFFCURVE",
"770 1038 CURVE SMOOTH",
"770 1070.667 OFFCURVE",
"765.333 1099.667 OFFCURVE",
"756 1125 CURVE SMOOTH",
"746.667 1150.333 OFFCURVE",
"733.667 1172 OFFCURVE",
"717 1190 CURVE",
"699.667 1207.333 OFFCURVE",
"679.167 1220.667 OFFCURVE",
"655.5 1230 CURVE SMOOTH",
"631.833 1239.333 OFFCURVE",
"605.667 1244 OFFCURVE",
"577 1244 CURVE SMOOTH",
"539.667 1244 OFFCURVE",
"506.833 1238.833 OFFCURVE",
"478.5 1228.5 CURVE SMOOTH",
"450.167 1218.167 OFFCURVE",
"426.667 1203 OFFCURVE",
"408 1183 CURVE SMOOTH",
"388.667 1162.333 OFFCURVE",
"374 1136.667 OFFCURVE",
"364 1106 CURVE SMOOTH",
"354 1075.333 OFFCURVE",
"349 1040.333 OFFCURVE",
"349 1001 CURVE",
"70 1001 LINE",
"70 1065.667 OFFCURVE",
"82.333 1126.833 OFFCURVE",
"107 1184.5 CURVE SMOOTH",
"131.667 1242.167 OFFCURVE",
"166.667 1292.667 OFFCURVE",
"212 1336 CURVE SMOOTH",
"256.667 1379.333 OFFCURVE",
"310.833 1413.5 OFFCURVE",
"374.5 1438.5 CURVE SMOOTH",
"438.167 1463.5 OFFCURVE",
"508.667 1476 OFFCURVE",
"586 1476 CURVE SMOOTH",
"660 1476 OFFCURVE",
"725.5 1465.667 OFFCURVE",
"782.5 1445 CURVE SMOOTH",
"839.5 1424.333 OFFCURVE",
"887.333 1395.333 OFFCURVE",
"926 1358 CURVE SMOOTH",
"964 1320.667 OFFCURVE",
"993 1275.833 OFFCURVE",
"1013 1223.5 CURVE SMOOTH",
"1033 1171.167 OFFCURVE",
"1043 1113.333 OFFCURVE",
"1043 1050 CURVE SMOOTH",
"1043 1002 OFFCURVE",
"1035.5 956.167 OFFCURVE",
"1020.5 912.5 CURVE SMOOTH",
"1005.5 868.833 OFFCURVE",
"984.333 825.667 OFFCURVE",
"957 783 CURVE SMOOTH",
"929 740.333 OFFCURVE",
"895.667 696.833 OFFCURVE",
"857 652.5 CURVE SMOOTH",
"818.333 608.167 OFFCURVE",
"775.333 561.667 OFFCURVE",
"728 513 CURVE SMOOTH",
"454 223 LINE",
"1093 223 LINE",
"1093 0 LINE"
);
}
);
width = 1229;
}
);
note = two;
unicode = 0032;
},
{
glyphname = three;
layers = (
{
layerId = "64CCE0F5-9A48-4B34-993D-1028D19A3A1F";
paths = (
{
closed = 1;
nodes = (
"421 850 LINE",
"572 850 LINE SMOOTH",
"612 850 OFFCURVE",
"646.5 855.5 OFFCURVE",
"675.5 866.5 CURVE SMOOTH",
"704.5 877.5 OFFCURVE",
"728 893 OFFCURVE",
"746 913 CURVE SMOOTH",
"762.667 930.333 OFFCURVE",
"775.167 951.5 OFFCURVE",
"783.5 976.5 CURVE SMOOTH",
"791.833 1001.5 OFFCURVE",
"796 1028.667 OFFCURVE",
"796 1058 CURVE SMOOTH",
"796 1086.667 OFFCURVE",
"791.833 1112.833 OFFCURVE",
"783.5 1136.5 CURVE SMOOTH",
"775.167 1160.167 OFFCURVE",
"762.667 1180.667 OFFCURVE",
"746 1198 CURVE SMOOTH",
"729.333 1214.667 OFFCURVE",
"708.167 1227.667 OFFCURVE",
"682.5 1237 CURVE SMOOTH",
"656.833 1246.333 OFFCURVE",
"627 1251 OFFCURVE",
"593 1251 CURVE SMOOTH",
"565 1251 OFFCURVE",
"538.833 1247 OFFCURVE",
"514.5 1239 CURVE SMOOTH",
"490.167 1231 OFFCURVE",
"469 1219.667 OFFCURVE",
"451 1205 CURVE SMOOTH",
"432.333 1189.667 OFFCURVE",
"417.667 1171.333 OFFCURVE",
"407 1150 CURVE SMOOTH",
"396.333 1128.667 OFFCURVE",
"391 1104.667 OFFCURVE",
"391 1078 CURVE",
"113 1078 LINE",
"113 1137.333 OFFCURVE",
"125.167 1191.333 OFFCURVE",
"149.5 1240 CURVE SMOOTH",
"173.833 1288.667 OFFCURVE",
"207.333 1330.667 OFFCURVE",
"250 1366 CURVE SMOOTH",
"292.667 1400.667 OFFCURVE",
"342.833 1427.667 OFFCURVE",
"400.5 1447 CURVE SMOOTH",
"458.167 1466.333 OFFCURVE",
"520.333 1476 OFFCURVE",
"587 1476 CURVE SMOOTH",
"659 1476 OFFCURVE",
"725 1467.167 OFFCURVE",
"785 1449.5 CURVE SMOOTH",
"845 1431.833 OFFCURVE",
"896.333 1405.667 OFFCURVE",
"939 1371 CURVE SMOOTH",
"981.667 1335.667 OFFCURVE",
"1014.833 1292.167 OFFCURVE",
"1038.5 1240.5 CURVE SMOOTH",
"1062.167 1188.833 OFFCURVE",
"1074 1129 OFFCURVE",
"1074 1061 CURVE SMOOTH",
"1074 1029.667 OFFCURVE",
"1069.333 998.833 OFFCURVE",
"1060 968.5 CURVE SMOOTH",
"1050.667 938.167 OFFCURVE",
"1037 909.333 OFFCURVE",
"1019 882 CURVE SMOOTH",
"1001 854.667 OFFCURVE",
"978.667 829.5 OFFCURVE",
"952 806.5 CURVE SMOOTH",
"925.333 783.5 OFFCURVE",
"894.667 763.667 OFFCURVE",
"860 747 CURVE",
"900.667 732.333 OFFCURVE",
"935.833 713.667 OFFCURVE",
"965.5 691 CURVE SMOOTH",
"995.167 668.333 OFFCURVE",
"1019.667 642.667 OFFCURVE",
"1039 614 CURVE SMOOTH",
"1058.333 584.667 OFFCURVE",
"1072.667 552.667 OFFCURVE",
"1082 518 CURVE SMOOTH",
"1091.333 483.333 OFFCURVE",
"1096 446.667 OFFCURVE",
"1096 408 CURVE SMOOTH",
"1096 340 OFFCURVE",
"1083 279.333 OFFCURVE",
"1057 226 CURVE SMOOTH",
"1031 172.667 OFFCURVE",
"995.333 128 OFFCURVE",
"950 92 CURVE SMOOTH",
"904.667 55.333 OFFCURVE",
"850.833 27.5 OFFCURVE",
"788.5 8.5 CURVE SMOOTH",
"726.167 -10.5 OFFCURVE",
"659 -20 OFFCURVE",
"587 -20 CURVE SMOOTH",
"525 -20 OFFCURVE",
"464.5 -11.5 OFFCURVE",
"405.5 5.5 CURVE SMOOTH",
"346.5 22.5 OFFCURVE",
"294 48.333 OFFCURVE",
"248 83 CURVE SMOOTH",
"202 117 OFFCURVE",
"165.167 160 OFFCURVE",
"137.5 212 CURVE SMOOTH",
"109.833 264 OFFCURVE",
"96 325.333 OFFCURVE",
"96 396 CURVE",
"374 396 LINE",
"374 368 OFFCURVE",
"379.333 342.167 OFFCURVE",
"390 318.5 CURVE SMOOTH",
"400.667 294.833 OFFCURVE",
"416 274.667 OFFCURVE",
"436 258 CURVE",
"455.333 240.667 OFFCURVE",
"478.333 227.167 OFFCURVE",
"505 217.5 CURVE SMOOTH",
"531.667 207.833 OFFCURVE",
"561 203 OFFCURVE",
"593 203 CURVE SMOOTH",
"629 203 OFFCURVE",
"661.333 208 OFFCURVE",
"690 218 CURVE SMOOTH",
"718.667 228 OFFCURVE",
"742.667 242.667 OFFCURVE",
"762 262 CURVE",
"780.667 279.333 OFFCURVE",
"794.833 300.667 OFFCURVE",
"804.5 326 CURVE SMOOTH",
"814.167 351.333 OFFCURVE",
"819 379.667 OFFCURVE",
"819 411 CURVE SMOOTH",
"819 450.333 OFFCURVE",
"813.333 484 OFFCURVE",
"802 512 CURVE SMOOTH",
"790.667 540 OFFCURVE",
"774.333 563 OFFCURVE",
"753 581 CURVE SMOOTH",
"731 599 OFFCURVE",
"704.833 612.333 OFFCURVE",
"674.5 621 CURVE SMOOTH",
"644.167 629.667 OFFCURVE",
"610 634 OFFCURVE",
"572 634 CURVE SMOOTH",
"421 634 LINE",
"421 850 LINE"
);
}
);
width = 1229;
}
);
note = three;
unicode = 0033;
},
{
glyphname = four;
layers = (
{
layerId = "64CCE0F5-9A48-4B34-993D-1028D19A3A1F";
paths = (
{
closed = 1;
nodes = (
"953 541 LINE",
"1122 541 LINE",
"1122 316 LINE",
"953 316 LINE",
"953 0 LINE",
"675 0 LINE",
"675 316 LINE",
"70 316 LINE",
"59 490 LINE",
"671 1456 LINE",
"953 1456 LINE",
"953 541 LINE"
);
},
{
closed = 1;
nodes = (
"332 541 LINE",
"675 541 LINE",
"675 1082 LINE",
"648 1034 LINE",
"332 541 LINE"
);
}
);
width = 1229;
}
);
note = four;
unicode = 0034;
},
{
glyphname = five;
layers = (
{
layerId = "64CCE0F5-9A48-4B34-993D-1028D19A3A1F";
paths = (
{
closed = 1;
nodes = (
"155 717 LINE",
"238 1456 LINE",
"1046 1456 LINE",
"1046 1220 LINE",
"467 1220 LINE",
"432 900 LINE",
"452.667 912 OFFCURVE",
"482 924.333 OFFCURVE",
"520 937 CURVE SMOOTH",
"558 949.667 OFFCURVE",
"601.667 956 OFFCURVE",
"651 956 CURVE SMOOTH",
"721 956 OFFCURVE",
"783.5 944.833 OFFCURVE",
"838.5 922.5 CURVE SMOOTH",
"893.5 900.167 OFFCURVE",
"940 868 OFFCURVE",
"978 826 CURVE SMOOTH",
"1015.333 784 OFFCURVE",
"1044 732.667 OFFCURVE",
"1064 672 CURVE SMOOTH",
"1084 611.333 OFFCURVE",
"1094 542.667 OFFCURVE",
"1094 466 CURVE SMOOTH",
"1094 400.667 OFFCURVE",
"1084.333 338.667 OFFCURVE",
"1065 280 CURVE SMOOTH",
"1045.667 221.333 OFFCURVE",
"1016 169.667 OFFCURVE",
"976 125 CURVE SMOOTH",
"936 80.333 OFFCURVE",
"885.667 45 OFFCURVE",
"825 19 CURVE SMOOTH",
"764.333 -7 OFFCURVE",
"692.667 -20 OFFCURVE",
"610 -20 CURVE SMOOTH",
"547.333 -20 OFFCURVE",
"486.833 -10.667 OFFCURVE",
"428.5 8 CURVE SMOOTH",
"370.167 26.667 OFFCURVE",
"318.333 54 OFFCURVE",
"273 90 CURVE SMOOTH",
"227.667 126 OFFCURVE",
"190.833 170.167 OFFCURVE",
"162.5 222.5 CURVE SMOOTH",
"134.167 274.833 OFFCURVE",
"119 334.667 OFFCURVE",
"117 402 CURVE",
"391 402 LINE",
"397.667 338.667 OFFCURVE",
"420.5 289.667 OFFCURVE",
"459.5 255 CURVE SMOOTH",
"498.5 220.333 OFFCURVE",
"548.333 203 OFFCURVE",
"609 203 CURVE SMOOTH",
"646.333 203 OFFCURVE",
"678.167 210 OFFCURVE",
"704.5 224 CURVE SMOOTH",
"730.833 238 OFFCURVE",
"752.333 257.333 OFFCURVE",
"769 282 CURVE SMOOTH",
"785 306.667 OFFCURVE",
"796.833 336 OFFCURVE",
"804.5 370 CURVE SMOOTH",
"812.167 404 OFFCURVE",
"816 440.667 OFFCURVE",
"816 480 CURVE SMOOTH",
"816 518.667 OFFCURVE",
"811.167 554.167 OFFCURVE",
"801.5 586.5 CURVE SMOOTH",
"791.833 618.833 OFFCURVE",
"777 646.667 OFFCURVE",
"757 670 CURVE SMOOTH",
"737 693.333 OFFCURVE",
"712 711.333 OFFCURVE",
"682 724 CURVE SMOOTH",
"652 736.667 OFFCURVE",
"616.667 743 OFFCURVE",
"576 743 CURVE SMOOTH",
"548.667 743 OFFCURVE",
"525 740.667 OFFCURVE",
"505 736 CURVE SMOOTH",
"485 731.333 OFFCURVE",
"467.333 725.333 OFFCURVE",
"452 718 CURVE SMOOTH",
"436.667 710.667 OFFCURVE",
"423 702.167 OFFCURVE",
"411 692.5 CURVE SMOOTH",
"399 682.833 OFFCURVE",
"387.667 672.667 OFFCURVE",
"377 662 CURVE",
"155 717 LINE"
);
}
);
width = 1229;
}
);
note = five;
unicode = 0035;
},
{
glyphname = six;
layers = (
{
layerId = "64CCE0F5-9A48-4B34-993D-1028D19A3A1F";
paths = (
{
closed = 1;
nodes = (
"879 1468 LINE",
"879 1237 LINE",
"863 1237 LINE SMOOTH",
"789.667 1237 OFFCURVE",
"724.833 1227.333 OFFCURVE",
"668.5 1208 CURVE SMOOTH",
"612.167 1188.667 OFFCURVE",
"564.333 1161.333 OFFCURVE",
"525 1126 CURVE SMOOTH",
"485 1090.667 OFFCURVE",
"453.5 1048.333 OFFCURVE",
"430.5 999 CURVE SMOOTH",
"407.5 949.667 OFFCURVE",
"393 894.667 OFFCURVE",
"387 834 CURVE",
"402.333 850.667 OFFCURVE",
"420 867.167 OFFCURVE",
"440 883.5 CURVE SMOOTH",
"460 899.833 OFFCURVE",
"482.667 914.667 OFFCURVE",
"508 928 CURVE SMOOTH",
"532.667 940.667 OFFCURVE",
"559.667 951 OFFCURVE",
"589 959 CURVE SMOOTH",
"618.333 967 OFFCURVE",
"650 971 OFFCURVE",
"684 971 CURVE SMOOTH",
"753.333 971 OFFCURVE",
"813.833 957.833 OFFCURVE",
"865.5 931.5 CURVE SMOOTH",
"917.167 905.167 OFFCURVE",
"960.333 869.667 OFFCURVE",
"995 825 CURVE SMOOTH",
"1029.667 779.667 OFFCURVE",
"1055.5 727.167 OFFCURVE",
"1072.5 667.5 CURVE SMOOTH",
"1089.5 607.833 OFFCURVE",
"1098 545 OFFCURVE",
"1098 479 CURVE SMOOTH",
"1098 408.333 OFFCURVE",
"1086.667 342.667 OFFCURVE",
"1064 282 CURVE SMOOTH",
"1041.333 221.333 OFFCURVE",
"1009 168.667 OFFCURVE",
"967 124 CURVE SMOOTH",
"925 79.333 OFFCURVE",
"874 44.167 OFFCURVE",
"814 18.5 CURVE SMOOTH",
"754 -7.167 OFFCURVE",
"686.667 -20 OFFCURVE",
"612 -20 CURVE SMOOTH",
"534 -20 OFFCURVE",
"463.667 -5.5 OFFCURVE",
"401 23.5 CURVE SMOOTH",
"338.333 52.5 OFFCURVE",
"285.333 92.667 OFFCURVE",
"242 144 CURVE SMOOTH",
"198 195.333 OFFCURVE",
"164.167 256.167 OFFCURVE",
"140.5 326.5 CURVE SMOOTH",
"116.833 396.833 OFFCURVE",
"105 473.667 OFFCURVE",
"105 557 CURVE SMOOTH",
"105 664 LINE SMOOTH",
"105 779.333 OFFCURVE",
"120.667 886.167 OFFCURVE",
"152 984.5 CURVE SMOOTH",
"183.333 1082.833 OFFCURVE",
"230 1168 OFFCURVE",
"292 1240 CURVE SMOOTH",
"354 1311.333 OFFCURVE",
"431 1367.167 OFFCURVE",
"523 1407.5 CURVE SMOOTH",
"615 1447.833 OFFCURVE",
"721.333 1468 OFFCURVE",
"842 1468 CURVE SMOOTH",
"879 1468 LINE"
);
},
{
closed = 1;
nodes = (
"576.333 748 OFFCURVE",
"551.333 744.167 OFFCURVE",
"528 736.5 CURVE SMOOTH",
"504.667 728.833 OFFCURVE",
"483.333 718 OFFCURVE",
"464 704 CURVE SMOOTH",
"447.333 691.333 OFFCURVE",
"432.167 676.667 OFFCURVE",
"418.5 660 CURVE SMOOTH",
"404.833 643.333 OFFCURVE",
"393.333 625 OFFCURVE",
"384 605 CURVE",
"384 523 LINE SMOOTH",
"384 469.667 OFFCURVE",
"389.5 423 OFFCURVE",
"400.5 383 CURVE SMOOTH",
"411.5 343 OFFCURVE",
"427 310 OFFCURVE",
"447 284 CURVE SMOOTH",
"467 257.333 OFFCURVE",
"490.667 237.333 OFFCURVE",
"518 224 CURVE SMOOTH",
"545.333 210.667 OFFCURVE",
"575 204 OFFCURVE",
"607 204 CURVE SMOOTH",
"639.667 204 OFFCURVE",
"669.333 210.833 OFFCURVE",
"696 224.5 CURVE SMOOTH",
"722.667 238.167 OFFCURVE",
"745.333 257 OFFCURVE",
"764 281 CURVE SMOOTH",
"782.667 305 OFFCURVE",
"797 333.5 OFFCURVE",
"807 366.5 CURVE SMOOTH",
"817 399.5 OFFCURVE",
"822 435.667 OFFCURVE",
"822 475 CURVE SMOOTH",
"822 514.333 OFFCURVE",
"817 550.667 OFFCURVE",
"807 584 CURVE SMOOTH",
"797 617.333 OFFCURVE",
"782.667 646.333 OFFCURVE",
"764 671 CURVE SMOOTH",
"745.333 695 OFFCURVE",
"722.5 713.833 OFFCURVE",
"695.5 727.5 CURVE SMOOTH",
"668.5 741.167 OFFCURVE",
"637.667 748 OFFCURVE",
"603 748 CURVE SMOOTH",
"603 748 LINE SMOOTH"
);
}
);
width = 1229;
}
);
note = six;
unicode = 0036;
},
{
glyphname = seven;
layers = (
{
layerId = "64CCE0F5-9A48-4B34-993D-1028D19A3A1F";
paths = (
{
closed = 1;
nodes = (
"1092 1301 LINE",
"525 0 LINE",
"232 0 LINE",
"800 1229 LINE",
"69 1229 LINE",
"69 1456 LINE",
"1092 1456 LINE",
"1092 1301 LINE"
);
}
);
width = 1229;
}
);
note = seven;
unicode = 0037;
},
{
glyphname = eight;
layers = (
{
layerId = "64CCE0F5-9A48-4B34-993D-1028D19A3A1F";
paths = (
{
closed = 1;
nodes = (
"1055 1029 OFFCURVE",
"1049.167 991.5 OFFCURVE",
"1037.5 956.5 CURVE SMOOTH",
"1025.833 921.5 OFFCURVE",
"1009.333 889.333 OFFCURVE",
"988 860 CURVE SMOOTH",
"971.333 838 OFFCURVE",
"951.833 817.5 OFFCURVE",
"929.5 798.5 CURVE SMOOTH",
"907.167 779.5 OFFCURVE",
"882.333 763 OFFCURVE",
"855 749 CURVE",
"879.667 737 OFFCURVE",
"903 723.5 OFFCURVE",
"925 708.5 CURVE SMOOTH",
"947 693.5 OFFCURVE",
"966.667 676.667 OFFCURVE",
"984 658 CURVE SMOOTH",
"1016 624.667 OFFCURVE",
"1041 586 OFFCURVE",
"1059 542 CURVE SMOOTH",
"1077 498 OFFCURVE",
"1086 450 OFFCURVE",
"1086 398 CURVE SMOOTH",
"1086 329.333 OFFCURVE",
"1073.5 269 OFFCURVE",
"1048.5 217 CURVE SMOOTH",
"1023.5 165 OFFCURVE",
"989.333 121.667 OFFCURVE",
"946 87 CURVE SMOOTH",
"902 51.667 OFFCURVE",
"850.333 25 OFFCURVE",
"791 7 CURVE SMOOTH",
"731.667 -11 OFFCURVE",
"667.667 -20 OFFCURVE",
"599 -20 CURVE SMOOTH",
"529.667 -20 OFFCURVE",
"465.167 -11 OFFCURVE",
"405.5 7 CURVE SMOOTH",
"345.833 25 OFFCURVE",
"294 51.667 OFFCURVE",
"250 87 CURVE SMOOTH",
"206 121.667 OFFCURVE",
"171.5 165 OFFCURVE",
"146.5 217 CURVE SMOOTH",
"121.5 269 OFFCURVE",
"109 329.333 OFFCURVE",
"109 398 CURVE SMOOTH",
"109 438 OFFCURVE",
"114.5 475.833 OFFCURVE",
"125.5 511.5 CURVE SMOOTH",
"136.5 547.167 OFFCURVE",
"152 580 OFFCURVE",
"172 610 CURVE SMOOTH",
"192 639.333 OFFCURVE",
"216.167 665.833 OFFCURVE",
"244.5 689.5 CURVE SMOOTH",
"272.833 713.167 OFFCURVE",
"304.667 733.333 OFFCURVE",
"340 750 CURVE",
"310 765.333 OFFCURVE",
"282.833 783.667 OFFCURVE",
"258.5 805 CURVE SMOOTH",
"234.167 826.333 OFFCURVE",
"213.667 850 OFFCURVE",
"197 876 CURVE SMOOTH",
"179 903.333 OFFCURVE",
"165.167 933.333 OFFCURVE",
"155.5 966 CURVE SMOOTH",
"145.833 998.667 OFFCURVE",
"141 1033 OFFCURVE",
"141 1069 CURVE SMOOTH",
"141 1135 OFFCURVE",
"152.333 1193.167 OFFCURVE",
"175 1243.5 CURVE SMOOTH",
"197.667 1293.833 OFFCURVE",
"229.333 1336.333 OFFCURVE",
"270 1371 CURVE SMOOTH",
"310 1405.667 OFFCURVE",
"357.833 1431.833 OFFCURVE",
"413.5 1449.5 CURVE SMOOTH",
"469.167 1467.167 OFFCURVE",
"530 1476 OFFCURVE",
"596 1476 CURVE SMOOTH",
"662 1476 OFFCURVE",
"723 1467.167 OFFCURVE",
"779 1449.5 CURVE SMOOTH",
"835 1431.833 OFFCURVE",
"883.667 1405.667 OFFCURVE",
"925 1371 CURVE SMOOTH",
"965.667 1336.333 OFFCURVE",
"997.5 1293.833 OFFCURVE",
"1020.5 1243.5 CURVE SMOOTH",
"1043.5 1193.167 OFFCURVE",
"1055 1135 OFFCURVE",
"1055 1069 CURVE",
"1055 1069 LINE"
);
},
{
closed = 1;
nodes = (
"807 450.333 OFFCURVE",
"802 480.333 OFFCURVE",
"792 507 CURVE SMOOTH",
"782 533.667 OFFCURVE",
"768 556.667 OFFCURVE",
"750 576 CURVE",
"731.333 594.667 OFFCURVE",
"709.167 609 OFFCURVE",
"683.5 619 CURVE SMOOTH",
"657.833 629 OFFCURVE",
"629 634 OFFCURVE",
"597 634 CURVE SMOOTH",
"565 634 OFFCURVE",
"536.167 629 OFFCURVE",
"510.5 619 CURVE SMOOTH",
"484.833 609 OFFCURVE",
"463 594.667 OFFCURVE",
"445 576 CURVE SMOOTH",
"427 556.667 OFFCURVE",
"413 533.667 OFFCURVE",
"403 507 CURVE SMOOTH",
"393 480.333 OFFCURVE",
"388 450.333 OFFCURVE",
"388 417 CURVE SMOOTH",
"388 382.333 OFFCURVE",
"393.333 351.333 OFFCURVE",
"404 324 CURVE SMOOTH",
"414.667 296.667 OFFCURVE",
"429.667 274 OFFCURVE",
"449 256 CURVE SMOOTH",
"467 238.667 OFFCURVE",
"488.667 225.5 OFFCURVE",
"514 216.5 CURVE SMOOTH",
"539.333 207.5 OFFCURVE",
"567.667 203 OFFCURVE",
"599 203 CURVE SMOOTH",
"629.667 203 OFFCURVE",
"657.667 207.833 OFFCURVE",
"683 217.5 CURVE SMOOTH",
"708.333 227.167 OFFCURVE",
"730.333 241.333 OFFCURVE",
"749 260 CURVE SMOOTH",
"767 278.667 OFFCURVE",
"781.167 301.167 OFFCURVE",
"791.5 327.5 CURVE SMOOTH",
"801.833 353.833 OFFCURVE",
"807 383.667 OFFCURVE",
"807 417 CURVE",
"807 417 LINE"
);
},
{
closed = 1;
nodes = (
"778 1085.333 OFFCURVE",
"773.667 1112 OFFCURVE",
"765 1136 CURVE SMOOTH",
"756.333 1160 OFFCURVE",
"744.333 1180.667 OFFCURVE",
"729 1198 CURVE",
"713 1214.667 OFFCURVE",
"693.833 1227.667 OFFCURVE",
"671.5 1237 CURVE SMOOTH",
"649.167 1246.333 OFFCURVE",
"624 1251 OFFCURVE",
"596 1251 CURVE SMOOTH",
"567.333 1251 OFFCURVE",
"542 1246.5 OFFCURVE",
"520 1237.5 CURVE SMOOTH",
"498 1228.5 OFFCURVE",
"479.667 1215.667 OFFCURVE",
"465 1199 CURVE SMOOTH",
"449.667 1182.333 OFFCURVE",
"438.167 1161.833 OFFCURVE",
"430.5 1137.5 CURVE SMOOTH",
"422.833 1113.167 OFFCURVE",
"419 1086.333 OFFCURVE",
"419 1057 CURVE SMOOTH",
"419 1027 OFFCURVE",
"423 999.833 OFFCURVE",
"431 975.5 CURVE SMOOTH",
"439 951.167 OFFCURVE",
"451 930.333 OFFCURVE",
"467 913 CURVE SMOOTH",
"482.333 895.667 OFFCURVE",
"501.167 882.167 OFFCURVE",
"523.5 872.5 CURVE SMOOTH",
"545.833 862.833 OFFCURVE",
"571 858 OFFCURVE",
"599 858 CURVE SMOOTH",
"627 858 OFFCURVE",
"652 862.833 OFFCURVE",
"674 872.5 CURVE SMOOTH",
"696 882.167 OFFCURVE",
"714.667 895.667 OFFCURVE",
"730 913 CURVE SMOOTH",
"745.333 930.333 OFFCURVE",
"757.167 951.167 OFFCURVE",
"765.5 975.5 CURVE SMOOTH",
"773.833 999.833 OFFCURVE",
"778 1026.667 OFFCURVE",
"778 1056 CURVE",
"778 1056 LINE"
);
}
);
width = 1229;
}
);
note = eight;
unicode = 0038;
},
{
glyphname = nine;
layers = (
{
layerId = "64CCE0F5-9A48-4B34-993D-1028D19A3A1F";
paths = (
{
closed = 1;
nodes = (
"406.667 221 OFFCURVE",
"471.333 229 OFFCURVE",
"526 245 CURVE SMOOTH",
"580.667 261 OFFCURVE",
"626.667 284.333 OFFCURVE",
"664 315 CURVE SMOOTH",
"700 344.333 OFFCURVE",
"728.167 380.5 OFFCURVE",
"748.5 423.5 CURVE SMOOTH",
"768.833 466.5 OFFCURVE",
"782.333 514.667 OFFCURVE",
"789 568 CURVE",
"789 574 LINE",
"775 560 OFFCURVE",
"759.333 547 OFFCURVE",
"742 535 CURVE SMOOTH",
"724.667 523 OFFCURVE",
"705.667 512.667 OFFCURVE",
"685 504 CURVE SMOOTH",
"663 494 OFFCURVE",
"638.333 486.167 OFFCURVE",
"611 480.5 CURVE SMOOTH",
"583.667 474.833 OFFCURVE",
"553.667 472 OFFCURVE",
"521 472 CURVE SMOOTH",
"451.667 472 OFFCURVE",
"390.667 484.667 OFFCURVE",
"338 510 CURVE SMOOTH",
"285.333 535.333 OFFCURVE",
"241.333 570 OFFCURVE",
"206 614 CURVE SMOOTH",
"170 658 OFFCURVE",
"142.833 709.833 OFFCURVE",
"124.5 769.5 CURVE SMOOTH",
"106.167 829.167 OFFCURVE",
"97 893.333 OFFCURVE",
"97 962 CURVE SMOOTH",
"97 1032.667 OFFCURVE",
"108.167 1099.167 OFFCURVE",
"130.5 1161.5 CURVE SMOOTH",
"152.833 1223.833 OFFCURVE",
"185 1278.333 OFFCURVE",
"227 1325 CURVE SMOOTH",
"269 1371.667 OFFCURVE",
"319.833 1408.5 OFFCURVE",
"379.5 1435.5 CURVE SMOOTH",
"439.167 1462.5 OFFCURVE",
"506.333 1476 OFFCURVE",
"581 1476 CURVE SMOOTH",
"657 1476 OFFCURVE",
"725.333 1461.333 OFFCURVE",
"786 1432 CURVE SMOOTH",
"846.667 1402.667 OFFCURVE",
"898.333 1361.667 OFFCURVE",
"941 1309 CURVE SMOOTH",
"983 1256.333 OFFCURVE",
"1015.167 1193.667 OFFCURVE",
"1037.5 1121 CURVE SMOOTH",
"1059.833 1048.333 OFFCURVE",
"1071 968.667 OFFCURVE",
"1071 882 CURVE SMOOTH",
"1071 786 LINE SMOOTH",
"1071 670 OFFCURVE",
"1056.667 563.333 OFFCURVE",
"1028 466 CURVE SMOOTH",
"999.333 368.667 OFFCURVE",
"955 284.667 OFFCURVE",
"895 214 CURVE SMOOTH",
"835 142.667 OFFCURVE",
"758.667 87.167 OFFCURVE",
"666 47.5 CURVE SMOOTH",
"573.333 7.833 OFFCURVE",
"462.667 -12 OFFCURVE",
"334 -12 CURVE SMOOTH",
"313 -12 LINE",
"313 221 LINE",
"332 221 LINE",
"332 221 LINE"
);
},
{
closed = 1;
nodes = (
"612.333 687 OFFCURVE",
"635.833 690.667 OFFCURVE",
"657.5 698 CURVE SMOOTH",
"679.167 705.333 OFFCURVE",
"699 715.667 OFFCURVE",
"717 729 CURVE SMOOTH",
"734.333 741.667 OFFCURVE",
"749.5 756.833 OFFCURVE",
"762.5 774.5 CURVE SMOOTH",
"775.5 792.167 OFFCURVE",
"786 811.333 OFFCURVE",
"794 832 CURVE",
"794 931 LINE SMOOTH",
"794 984.333 OFFCURVE",
"788.5 1031 OFFCURVE",
"777.5 1071 CURVE SMOOTH",
"766.5 1111 OFFCURVE",
"751.333 1144.333 OFFCURVE",
"732 1171 CURVE SMOOTH",
"712.667 1197.667 OFFCURVE",
"690 1217.667 OFFCURVE",
"664 1231 CURVE SMOOTH",
"638 1244.333 OFFCURVE",
"610 1251 OFFCURVE",
"580 1251 CURVE SMOOTH",
"547.333 1251 OFFCURVE",
"518.167 1243.167 OFFCURVE",
"492.5 1227.5 CURVE SMOOTH",
"466.833 1211.833 OFFCURVE",
"445.333 1191 OFFCURVE",
"428 1165 CURVE SMOOTH",
"410.667 1138.333 OFFCURVE",
"397.333 1107.833 OFFCURVE",
"388 1073.5 CURVE SMOOTH",
"378.667 1039.167 OFFCURVE",
"374 1003.333 OFFCURVE",
"374 966 CURVE SMOOTH",
"374 928.667 OFFCURVE",
"378.333 893 OFFCURVE",
"387 859 CURVE SMOOTH",
"395.667 825 OFFCURVE",
"409 795.333 OFFCURVE",
"427 770 CURVE SMOOTH",
"444.333 744.667 OFFCURVE",
"466.333 724.5 OFFCURVE",
"493 709.5 CURVE SMOOTH",
"519.667 694.5 OFFCURVE",
"551 687 OFFCURVE",
"587 687 CURVE",
"587 687 LINE"
);
}
);
width = 1229;
}
);
note = nine;
unicode = 0039;
},
{
glyphname = period;
lastChange = "2025-06-24 02:15:18 +0000";
layers = (
{
layerId = "64CCE0F5-9A48-4B34-993D-1028D19A3A1F";
paths = (
{
closed = 1;
nodes = (
"114 212 OFFCURVE",
"131 256 OFFCURVE",
"165 292 CURVE SMOOTH",
"199 327 OFFCURVE",
"246 345 OFFCURVE",
"307 345 CURVE SMOOTH",
"367 345 OFFCURVE",
"414 327 OFFCURVE",
"449 292 CURVE SMOOTH",
"483 257 OFFCURVE",
"500 213 OFFCURVE",
"500 161 CURVE SMOOTH",
"500 109 OFFCURVE",
"483 66 OFFCURVE",
"448 32 CURVE SMOOTH",
"413 -3 OFFCURVE",
"366 -20 OFFCURVE",
"307 -20 CURVE SMOOTH",
"248 -20 OFFCURVE",
"201 -3 OFFCURVE",
"166 32 CURVE SMOOTH",
"131 67 OFFCURVE",
"114 110 OFFCURVE",
"114 161 CURVE",
"114 161 LINE"
);
}
);
width = 614;
}
);
note = period;
unicode = 002E;
},
{
glyphname = comma;
lastChange = "2025-06-24 02:15:34 +0000";
layers = (
{
layerId = "64CCE0F5-9A48-4B34-993D-1028D19A3A1F";
paths = (
{
closed = 1;
nodes = (
"458 -54 OFFCURVE",
"439 -131 OFFCURVE",
"402 -209 CURVE SMOOTH",
"364 -287 OFFCURVE",
"315 -353 OFFCURVE",
"255 -406 CURVE",
"108 -330 LINE",
"133 -282 OFFCURVE",
"155 -232 OFFCURVE",
"172 -180 CURVE SMOOTH",
"189 -127 OFFCURVE",
"198 -64 OFFCURVE",
"198 9 CURVE SMOOTH",
"198 243 LINE",
"459 243 LINE",
"458 22 LINE",
"458 22 LINE"
);
}
);
width = 614;
}
);
note = comma;
unicode = 002C;
},
{
glyphname = hyphen;
layers = (
{
layerId = "64CCE0F5-9A48-4B34-993D-1028D19A3A1F";
paths = (
{
closed = 1;
nodes = (
"1115 530 LINE",
"282 530 LINE",
"282 755 LINE",
"1115 755 LINE",
"1115 530 LINE"
);
}
);
width = 1229;
}
);
note = hyphen;
unicode = 002D;
},
{
glyphname = dollar;
layers = (
{
layerId = "64CCE0F5-9A48-4B34-993D-1028D19A3A1F";
paths = (
{
closed = 1;
nodes = (
"863 410 OFFCURVE",
"858.833 434.833 OFFCURVE",
"850.5 456.5 CURVE SMOOTH",
"842.167 478.167 OFFCURVE",
"829 498 OFFCURVE",
"811 516 CURVE SMOOTH",
"792.333 534 OFFCURVE",
"768.167 550.5 OFFCURVE",
"738.5 565.5 CURVE SMOOTH",
"708.833 580.5 OFFCURVE",
"673 595.333 OFFCURVE",
"631 610 CURVE SMOOTH",
"563.667 634 OFFCURVE",
"502.333 659.333 OFFCURVE",
"447 686 CURVE SMOOTH",
"391.667 712.667 OFFCURVE",
"344.667 743.667 OFFCURVE",
"306 779 CURVE SMOOTH",
"266.667 814.333 OFFCURVE",
"236.333 855.5 OFFCURVE",
"215 902.5 CURVE SMOOTH",
"193.667 949.5 OFFCURVE",
"183 1005.333 OFFCURVE",
"183 1070 CURVE SMOOTH",
"183 1126.667 OFFCURVE",
"192.667 1178.5 OFFCURVE",
"212 1225.5 CURVE SMOOTH",
"231.333 1272.5 OFFCURVE",
"258.667 1313.333 OFFCURVE",
"294 1348 CURVE SMOOTH",
"329.333 1382.667 OFFCURVE",
"372 1410.667 OFFCURVE",
"422 1432 CURVE SMOOTH",
"472 1453.333 OFFCURVE",
"527.667 1467 OFFCURVE",
"589 1473 CURVE",
"589 1688 LINE",
"749 1688 LINE",
"749 1471 LINE",
"809 1463 OFFCURVE",
"863 1446.667 OFFCURVE",
"911 1422 CURVE SMOOTH",
"959 1397.333 OFFCURVE",
"1000 1365.333 OFFCURVE",
"1034 1326 CURVE SMOOTH",
"1067.333 1286 OFFCURVE",
"1093.167 1239.167 OFFCURVE",
"1111.5 1185.5 CURVE SMOOTH",
"1129.833 1131.833 OFFCURVE",
"1139 1071.667 OFFCURVE",
"1139 1005 CURVE",
"861 1005 LINE",
"861 1047.667 OFFCURVE",
"855.667 1085 OFFCURVE",
"845 1117 CURVE SMOOTH",
"834.333 1149 OFFCURVE",
"819.333 1175.333 OFFCURVE",
"800 1196 CURVE SMOOTH",
"782.667 1214 OFFCURVE",
"761.833 1227.667 OFFCURVE",
"737.5 1237 CURVE SMOOTH",
"713.167 1246.333 OFFCURVE",
"686.333 1251 OFFCURVE",
"657 1251 CURVE SMOOTH",
"623 1251 OFFCURVE",
"593.5 1246.5 OFFCURVE",
"568.5 1237.5 CURVE SMOOTH",
"543.5 1228.5 OFFCURVE",
"523 1216 OFFCURVE",
"507 1200 CURVE SMOOTH",
"491 1183.333 OFFCURVE",
"479.167 1164 OFFCURVE",
"471.5 1142 CURVE SMOOTH",
"463.833 1120 OFFCURVE",
"460 1096 OFFCURVE",
"460 1070 CURVE SMOOTH",
"460 1044 OFFCURVE",
"463.833 1020.833 OFFCURVE",
"471.5 1000.5 CURVE SMOOTH",
"479.167 980.167 OFFCURVE",
"492.333 961.333 OFFCURVE",
"511 944 CURVE SMOOTH",
"529 926.667 OFFCURVE",
"553 910.167 OFFCURVE",
"583 894.5 CURVE SMOOTH",
"613 878.833 OFFCURVE",
"650.333 863 OFFCURVE",
"695 847 CURVE SMOOTH",
"762.333 821.667 OFFCURVE",
"823.333 795.5 OFFCURVE",
"878 768.5 CURVE SMOOTH",
"932.667 741.5 OFFCURVE",
"979.667 710.333 OFFCURVE",
"1019 675 CURVE SMOOTH",
"1057.667 639 OFFCURVE",
"1087.5 597.5 OFFCURVE",
"1108.5 550.5 CURVE SMOOTH",
"1129.5 503.5 OFFCURVE",
"1140 448 OFFCURVE",
"1140 384 CURVE SMOOTH",
"1140 325.333 OFFCURVE",
"1130.333 272.5 OFFCURVE",
"1111 225.5 CURVE SMOOTH",
"1091.667 178.5 OFFCURVE",
"1064 138 OFFCURVE",
"1028 104 CURVE SMOOTH",
"992 70 OFFCURVE",
"948.667 42.833 OFFCURVE",
"898 22.5 CURVE SMOOTH",
"847.333 2.167 OFFCURVE",
"790.667 -11 OFFCURVE",
"728 -17 CURVE",
"728 -213 LINE",
"569 -213 LINE",
"569 -17 LINE",
"512.333 -11.667 OFFCURVE",
"457.333 0.833 OFFCURVE",
"404 20.5 CURVE SMOOTH",
"350.667 40.167 OFFCURVE",
"303.667 68.667 OFFCURVE",
"263 106 CURVE SMOOTH",
"221.667 143.333 OFFCURVE",
"188.667 190.5 OFFCURVE",
"164 247.5 CURVE SMOOTH",
"139.333 304.5 OFFCURVE",
"127 373 OFFCURVE",
"127 453 CURVE",
"406 453 LINE",
"406 405 OFFCURVE",
"413 364.833 OFFCURVE",
"427 332.5 CURVE SMOOTH",
"441 300.167 OFFCURVE",
"459.333 274.667 OFFCURVE",
"482 256 CURVE SMOOTH",
"504 236.667 OFFCURVE",
"529.333 223 OFFCURVE",
"558 215 CURVE SMOOTH",
"586.667 207 OFFCURVE",
"616 203 OFFCURVE",
"646 203 CURVE SMOOTH",
"684 203 OFFCURVE",
"717 207.833 OFFCURVE",
"745 217.5 CURVE SMOOTH",
"773 227.167 OFFCURVE",
"796 240.667 OFFCURVE",
"814 258 CURVE SMOOTH",
"830 273.333 OFFCURVE",
"842.167 291.667 OFFCURVE",
"850.5 313 CURVE SMOOTH",
"858.833 334.333 OFFCURVE",
"863 357.333 OFFCURVE",
"863 382 CURVE",
"863 382 LINE"
);
}
);
width = 1229;
}
);
note = dollar;
unicode = 0024;
},
{
glyphname = yen;
layers = (
{
layerId = "64CCE0F5-9A48-4B34-993D-1028D19A3A1F";
paths = (
{
closed = 1;
nodes = (
"479 0 LINE",
"479 287 LINE",
"136 287 LINE",
"136 452 LINE",
"479 452 LINE",
"479 576 LINE",
"136 576 LINE",
"136 742 LINE",
"405 742 LINE",
"21 1456 LINE",
"331 1456 LINE",
"597 893 LINE",
"622 837 LINE",
"624 837 LINE",
"649 894 LINE",
"915 1456 LINE",
"1224 1456 LINE",
"841 742 LINE",
"1091 742 LINE",
"1091 576 LINE",
"760 576 LINE",
"760 452 LINE",
"1091 452 LINE",
"1091 287 LINE",
"760 287 LINE",
"760 0 LINE",
"479 0 LINE"
);
}
);
width = 1229;
}
);
note = yen;
unicode = 00A5;
},
{
glyphname = plus;
layers = (
{
layerId = "64CCE0F5-9A48-4B34-993D-1028D19A3A1F";
paths = (
{
closed = 1;
nodes = (
"731 812 LINE",
"1097 812 LINE",
"1097 558 LINE",
"731 558 LINE",
"731 146 LINE",
"466 146 LINE",
"466 558 LINE",
"99 558 LINE",
"99 812 LINE",
"466 812 LINE",
"466 1206 LINE",
"731 1206 LINE",
"731 812 LINE"
);
}
);
width = 1229;
}
);
note = plus;
unicode = 002B;
},
{
glyphname = minus;
layers = (
{
layerId = "64CCE0F5-9A48-4B34-993D-1028D19A3A1F";
paths = (
{
closed = 1;
nodes = (
"1009 601 LINE",
"149 601 LINE",
"149 828 LINE",
"1009 828 LINE",
"1009 601 LINE"
);
}
);
width = 1229;
}
);
note = minus;
unicode = 2212;
},
{
glyphname = uni047A;
layers = (
{
layerId = "64CCE0F5-9A48-4B34-993D-1028D19A3A1F";
paths = (
{
closed = 1;
nodes = (
"710 1124 LINE",
"514 1124 LINE",
"514 1577 LINE",
"710 1577 LINE",
"710 1124 LINE"
);
},
{
closed = 1;
nodes = (
"712 -136 LINE",
"516 -136 LINE",
"516 328 LINE",
"712 328 LINE",
"712 -136 LINE"
);
},
{
closed = 1;
nodes = (
"1147 568.333 OFFCURVE",
"1143 517.667 OFFCURVE",
"1135 469 CURVE SMOOTH",
"1127 420.333 OFFCURVE",
"1115.333 375 OFFCURVE",
"1100 333 CURVE SMOOTH",
"1077.333 271.667 OFFCURVE",
"1048.333 218.333 OFFCURVE",
"1013 173 CURVE SMOOTH",
"977.667 127.667 OFFCURVE",
"936.333 89.333 OFFCURVE",
"889 58 CURVE SMOOTH",
"849.667 33.333 OFFCURVE",
"806.333 14.167 OFFCURVE",
"759 0.5 CURVE SMOOTH",
"711.667 -13.167 OFFCURVE",
"660.667 -20 OFFCURVE",
"606 -20 CURVE SMOOTH",
"553.333 -20 OFFCURVE",
"504.333 -13.667 OFFCURVE",
"459 -1 CURVE SMOOTH",
"413.667 11.667 OFFCURVE",
"372.333 29.667 OFFCURVE",
"335 53 CURVE SMOOTH",
"286.333 83 OFFCURVE",
"244.667 121.667 OFFCURVE",
"210 169 CURVE SMOOTH",
"175.333 216.333 OFFCURVE",
"147.333 270 OFFCURVE",
"126 330 CURVE SMOOTH",
"110.667 372 OFFCURVE",
"99.167 417.667 OFFCURVE",
"91.5 467 CURVE SMOOTH",
"83.833 516.333 OFFCURVE",
"80 567.667 OFFCURVE",
"80 621 CURVE SMOOTH",
"80 833 LINE SMOOTH",
"80 883.667 OFFCURVE",
"83.5 932.167 OFFCURVE",
"90.5 978.5 CURVE SMOOTH",
"97.5 1024.833 OFFCURVE",
"107.333 1068.333 OFFCURVE",
"120 1109 CURVE SMOOTH",
"141.333 1171.667 OFFCURVE",
"170 1228.333 OFFCURVE",
"206 1279 CURVE SMOOTH",
"242 1329.667 OFFCURVE",
"283.333 1369.667 OFFCURVE",
"330 1399 CURVE SMOOTH",
"368.667 1423.667 OFFCURVE",
"410.833 1442.667 OFFCURVE",
"456.5 1456 CURVE SMOOTH",
"502.167 1469.333 OFFCURVE",
"551.667 1476 OFFCURVE",
"605 1476 CURVE SMOOTH",
"651.667 1476 OFFCURVE",
"695.667 1471 OFFCURVE",
"737 1461 CURVE SMOOTH",
"778.333 1451 OFFCURVE",
"816.667 1437 OFFCURVE",
"852 1419 CURVE SMOOTH",
"916.667 1384.333 OFFCURVE",
"972 1336.333 OFFCURVE",
"1018 1275 CURVE SMOOTH",
"1064 1213.667 OFFCURVE",
"1097.667 1142.667 OFFCURVE",
"1119 1062 CURVE SMOOTH",
"1128.333 1027.333 OFFCURVE",
"1135.333 990.667 OFFCURVE",
"1140 952 CURVE SMOOTH",
"1144.667 913.333 OFFCURVE",
"1147 873.667 OFFCURVE",
"1147 833 CURVE SMOOTH",
"1147 621 LINE",
"1147 621 LINE"
);
},
{
closed = 1;
nodes = (
"862 860.333 OFFCURVE",
"861.167 885.167 OFFCURVE",
"859.5 909.5 CURVE SMOOTH",
"857.833 933.833 OFFCURVE",
"855 957 OFFCURVE",
"851 979 CURVE SMOOTH",
"843.667 1023.667 OFFCURVE",
"832.333 1063.667 OFFCURVE",
"817 1099 CURVE SMOOTH",
"801.667 1134.333 OFFCURVE",
"781.667 1163.333 OFFCURVE",
"757 1186 CURVE SMOOTH",
"737.667 1204 OFFCURVE",
"715.5 1218 OFFCURVE",
"690.5 1228 CURVE SMOOTH",
"665.5 1238 OFFCURVE",
"637 1243 OFFCURVE",
"605 1243 CURVE SMOOTH",
"576.333 1243 OFFCURVE",
"550.833 1239 OFFCURVE",
"528.5 1231 CURVE SMOOTH",
"506.167 1223 OFFCURVE",
"486.333 1211.333 OFFCURVE",
"469 1196 CURVE",
"458.333 1187.333 OFFCURVE",
"448.833 1177.167 OFFCURVE",
"440.5 1165.5 CURVE SMOOTH",
"432.167 1153.833 OFFCURVE",
"424.333 1141.333 OFFCURVE",
"417 1128 CURVE SMOOTH",
"398.333 1093.333 OFFCURVE",
"385 1050.833 OFFCURVE",
"377 1000.5 CURVE SMOOTH",
"369 950.167 OFFCURVE",
"365 895 OFFCURVE",
"365 835 CURVE SMOOTH",
"365 621 LINE SMOOTH",
"365 588.333 OFFCURVE",
"366.167 557 OFFCURVE",
"368.5 527 CURVE SMOOTH",
"370.833 497 OFFCURVE",
"374.667 468.667 OFFCURVE",
"380 442 CURVE SMOOTH",
"386.667 405.333 OFFCURVE",
"396.667 372 OFFCURVE",
"410 342 CURVE SMOOTH",
"423.333 312 OFFCURVE",
"440.333 286.667 OFFCURVE",
"461 266 CURVE SMOOTH",
"479 248.667 OFFCURVE",
"499.833 235.167 OFFCURVE",
"523.5 225.5 CURVE SMOOTH",
"547.167 215.833 OFFCURVE",
"574.667 211 OFFCURVE",
"606 211 CURVE SMOOTH",
"635.333 211 OFFCURVE",
"662 215.333 OFFCURVE",
"686 224 CURVE SMOOTH",
"710 232.667 OFFCURVE",
"731 245.333 OFFCURVE",
"749 262 CURVE",
"771 280 OFFCURVE",
"789.167 302.667 OFFCURVE",
"803.5 330 CURVE SMOOTH",
"817.833 357.333 OFFCURVE",
"829.667 388 OFFCURVE",
"839 422 CURVE SMOOTH",
"846.333 450.667 OFFCURVE",
"852 481.833 OFFCURVE",
"856 515.5 CURVE SMOOTH",
"860 549.167 OFFCURVE",
"862 584.333 OFFCURVE",
"862 621 CURVE SMOOTH",
"862 835 LINE",
"862 835 LINE"
);
}
);
width = 1229;
}
);
note = uni047A;
unicode = 047A;
},
{
glyphname = uni047B;
layers = (
{
layerId = "64CCE0F5-9A48-4B34-993D-1028D19A3A1F";
paths = (
{
closed = 1;
nodes = (
"698 764 LINE",
"528 764 LINE",
"528 1223 LINE",
"698 1223 LINE",
"698 764 LINE"
);
},
{
closed = 1;
nodes = (
"694 -147 LINE",
"523 -147 LINE",
"523 330 LINE",
"694 330 LINE",
"694 -147 LINE"
);
},
{
closed = 1;
nodes = (
"104 629.667 OFFCURVE",
"115.333 702.5 OFFCURVE",
"138 769.5 CURVE SMOOTH",
"160.667 836.5 OFFCURVE",
"194 894.667 OFFCURVE",
"238 944 CURVE SMOOTH",
"281.333 993.333 OFFCURVE",
"334.5 1032 OFFCURVE",
"397.5 1060 CURVE SMOOTH",
"460.5 1088 OFFCURVE",
"532.667 1102 OFFCURVE",
"614 1102 CURVE SMOOTH",
"695.333 1102 OFFCURVE",
"767.667 1088 OFFCURVE",
"831 1060 CURVE SMOOTH",
"894.333 1032 OFFCURVE",
"948 993.333 OFFCURVE",
"992 944 CURVE SMOOTH",
"1035.333 894.667 OFFCURVE",
"1068.333 836.5 OFFCURVE",
"1091 769.5 CURVE SMOOTH",
"1113.667 702.5 OFFCURVE",
"1125 629.667 OFFCURVE",
"1125 551 CURVE SMOOTH",
"1125 530 LINE SMOOTH",
"1125 450.667 OFFCURVE",
"1113.667 377.5 OFFCURVE",
"1091 310.5 CURVE SMOOTH",
"1068.333 243.5 OFFCURVE",
"1035.333 185.333 OFFCURVE",
"992 136 CURVE SMOOTH",
"948.667 86.667 OFFCURVE",
"895.333 48.167 OFFCURVE",
"832 20.5 CURVE SMOOTH",
"768.667 -7.167 OFFCURVE",
"696.667 -21 OFFCURVE",
"616 -21 CURVE SMOOTH",
"534.667 -21 OFFCURVE",
"462.167 -7.167 OFFCURVE",
"398.5 20.5 CURVE SMOOTH",
"334.833 48.167 OFFCURVE",
"281.333 86.667 OFFCURVE",
"238 136 CURVE SMOOTH",
"194 185.333 OFFCURVE",
"160.667 243.5 OFFCURVE",
"138 310.5 CURVE SMOOTH",
"115.333 377.5 OFFCURVE",
"104 450.667 OFFCURVE",
"104 530 CURVE SMOOTH",
"104 551 LINE",
"104 551 LINE"
);
},
{
closed = 1;
nodes = (
"382 484.667 OFFCURVE",
"386.333 442.167 OFFCURVE",
"395 402.5 CURVE SMOOTH",
"403.667 362.833 OFFCURVE",
"417.333 328.333 OFFCURVE",
"436 299 CURVE SMOOTH",
"454.667 269 OFFCURVE",
"478.833 245.333 OFFCURVE",
"508.5 228 CURVE SMOOTH",
"538.167 210.667 OFFCURVE",
"574 202 OFFCURVE",
"616 202 CURVE SMOOTH",
"656.667 202 OFFCURVE",
"691.667 210.667 OFFCURVE",
"721 228 CURVE SMOOTH",
"750.333 245.333 OFFCURVE",
"774.333 269 OFFCURVE",
"793 299 CURVE SMOOTH",
"811 328.333 OFFCURVE",
"824.333 362.833 OFFCURVE",
"833 402.5 CURVE SMOOTH",
"841.667 442.167 OFFCURVE",
"846 484.667 OFFCURVE",
"846 530 CURVE SMOOTH",
"846 551 LINE SMOOTH",
"846 595 OFFCURVE",
"841.667 636.667 OFFCURVE",
"833 676 CURVE SMOOTH",
"824.333 715.333 OFFCURVE",
"811 750 OFFCURVE",
"793 780 CURVE SMOOTH",
"774.333 810 OFFCURVE",
"750.333 833.667 OFFCURVE",
"721 851 CURVE SMOOTH",
"691.667 868.333 OFFCURVE",
"656 877 OFFCURVE",
"614 877 CURVE SMOOTH",
"572.667 877 OFFCURVE",
"537.333 868.333 OFFCURVE",
"508 851 CURVE SMOOTH",
"478.667 833.667 OFFCURVE",
"454.667 810 OFFCURVE",
"436 780 CURVE SMOOTH",
"417.333 750 OFFCURVE",
"403.667 715.333 OFFCURVE",
"395 676 CURVE SMOOTH",
"386.333 636.667 OFFCURVE",
"382 595 OFFCURVE",
"382 551 CURVE SMOOTH",
"382 530 LINE",
"382 530 LINE"
);
}
);
width = 1229;
}
);
note = uni047B;
unicode = 047B;
},
{
glyphname = uni047C;
layers = (
{
layerId = "64CCE0F5-9A48-4B34-993D-1028D19A3A1F";
paths = (
{
closed = 1;
nodes = (
"880.667 1456 OFFCURVE",
"914.167 1453.167 OFFCURVE",
"946.5 1447.5 CURVE SMOOTH",
"978.833 1441.833 OFFCURVE",
"1009.333 1433.333 OFFCURVE",
"1038 1422 CURVE SMOOTH",
"1081.333 1405.333 OFFCURVE",
"1119.667 1382.167 OFFCURVE",
"1153 1352.5 CURVE SMOOTH",
"1186.333 1322.833 OFFCURVE",
"1213.667 1288.333 OFFCURVE",
"1235 1249 CURVE SMOOTH",
"1250.333 1219 OFFCURVE",
"1262.167 1185.667 OFFCURVE",
"1270.5 1149 CURVE SMOOTH",
"1278.833 1112.333 OFFCURVE",
"1283 1072.667 OFFCURVE",
"1283 1030 CURVE SMOOTH",
"1283 363 LINE SMOOTH",
"1283 299.667 OFFCURVE",
"1273 244 OFFCURVE",
"1253 196 CURVE SMOOTH",
"1233 148 OFFCURVE",
"1205.333 108 OFFCURVE",
"1170 76 CURVE SMOOTH",
"1134.667 44 OFFCURVE",
"1092.833 19.833 OFFCURVE",
"1044.5 3.5 CURVE SMOOTH",
"996.167 -12.833 OFFCURVE",
"943.333 -21 OFFCURVE",
"886 -21 CURVE SMOOTH",
"860 -21 OFFCURVE",
"835.333 -18 OFFCURVE",
"812 -12 CURVE SMOOTH",
"788.667 -6 OFFCURVE",
"767 2.667 OFFCURVE",
"747 14 CURVE SMOOTH",
"731.667 23.333 OFFCURVE",
"717 34.333 OFFCURVE",
"703 47 CURVE SMOOTH",
"689 59.667 OFFCURVE",
"676 74.333 OFFCURVE",
"664 91 CURVE",
"653.333 76.333 OFFCURVE",
"641.833 63 OFFCURVE",
"629.5 51 CURVE SMOOTH",
"617.167 39 OFFCURVE",
"604 28.667 OFFCURVE",
"590 20 CURVE",
"569.333 6 OFFCURVE",
"546.667 -4.333 OFFCURVE",
"522 -11 CURVE SMOOTH",
"497.333 -17.667 OFFCURVE",
"471.333 -21 OFFCURVE",
"444 -21 CURVE SMOOTH",
"386.667 -21 OFFCURVE",
"333.667 -12.833 OFFCURVE",
"285 3.5 CURVE SMOOTH",
"236.333 19.833 OFFCURVE",
"194.333 44 OFFCURVE",
"159 76 CURVE SMOOTH",
"123.667 108 OFFCURVE",
"96.167 148 OFFCURVE",
"76.5 196 CURVE SMOOTH",
"56.833 244 OFFCURVE",
"47 299.667 OFFCURVE",
"47 363 CURVE SMOOTH",
"47 1030 LINE SMOOTH",
"47 1071.333 OFFCURVE",
"51 1109.833 OFFCURVE",
"59 1145.5 CURVE SMOOTH",
"67 1181.167 OFFCURVE",
"78.333 1213.667 OFFCURVE",
"93 1243 CURVE SMOOTH",
"110.333 1278.333 OFFCURVE",
"132.833 1309.5 OFFCURVE",
"160.5 1336.5 CURVE SMOOTH",
"188.167 1363.5 OFFCURVE",
"219 1386.333 OFFCURVE",
"253 1405 CURVE SMOOTH",
"285.667 1421.667 OFFCURVE",
"321.5 1434.333 OFFCURVE",
"360.5 1443 CURVE SMOOTH",
"399.5 1451.667 OFFCURVE",
"440.667 1456 OFFCURVE",
"484 1456 CURVE",
"484 1228 LINE",
"471.333 1228 OFFCURVE",
"459.333 1227 OFFCURVE",
"448 1225 CURVE SMOOTH",
"436.667 1223 OFFCURVE",
"426 1219.667 OFFCURVE",
"416 1215 CURVE",
"396.667 1207.667 OFFCURVE",
"380.333 1195.5 OFFCURVE",
"367 1178.5 CURVE SMOOTH",
"353.667 1161.5 OFFCURVE",
"343.333 1139.667 OFFCURVE",
"336 1113 CURVE",
"333.333 1101 OFFCURVE",
"331.167 1088.167 OFFCURVE",
"329.5 1074.5 CURVE SMOOTH",
"327.833 1060.833 OFFCURVE",
"327 1046 OFFCURVE",
"327 1030 CURVE SMOOTH",
"327 363 LINE SMOOTH",
"327 333.667 OFFCURVE",
"330 308.667 OFFCURVE",
"336 288 CURVE SMOOTH",
"342 267.333 OFFCURVE",
"350.667 250.667 OFFCURVE",
"362 238 CURVE SMOOTH",
"372 226.667 OFFCURVE",
"384 218.333 OFFCURVE",
"398 213 CURVE SMOOTH",
"412 207.667 OFFCURVE",
"427.333 205 OFFCURVE",
"444 205 CURVE SMOOTH",
"455.333 205 OFFCURVE",
"465.667 207 OFFCURVE",
"475 211 CURVE SMOOTH",
"484.333 215 OFFCURVE",
"492.667 221.333 OFFCURVE",
"500 230 CURVE",
"506 238 OFFCURVE",
"511.333 248 OFFCURVE",
"516 260 CURVE SMOOTH",
"520.667 272 OFFCURVE",
"524.333 286.333 OFFCURVE",
"527 303 CURVE SMOOTH",
"528.333 312.333 OFFCURVE",
"529.333 322.5 OFFCURVE",
"530 333.5 CURVE SMOOTH",
"530.667 344.5 OFFCURVE",
"531 356.333 OFFCURVE",
"531 369 CURVE SMOOTH",
"531 816 LINE",
"799 816 LINE",
"799 369 LINE SMOOTH",
"799 355.667 OFFCURVE",
"799.5 343 OFFCURVE",
"800.5 331 CURVE SMOOTH",
"801.5 319 OFFCURVE",
"802.667 308 OFFCURVE",
"804 298 CURVE SMOOTH",
"806.667 281.333 OFFCURVE",
"810.5 267 OFFCURVE",
"815.5 255 CURVE SMOOTH",
"820.5 243 OFFCURVE",
"826.667 233.333 OFFCURVE",
"834 226 CURVE",
"840.667 218.667 OFFCURVE",
"848.333 213.333 OFFCURVE",
"857 210 CURVE SMOOTH",
"865.667 206.667 OFFCURVE",
"875.333 205 OFFCURVE",
"886 205 CURVE SMOOTH",
"902 205 OFFCURVE",
"916.833 207.667 OFFCURVE",
"930.5 213 CURVE SMOOTH",
"944.167 218.333 OFFCURVE",
"956 226.667 OFFCURVE",
"966 238 CURVE SMOOTH",
"977.333 250 OFFCURVE",
"986.167 266.5 OFFCURVE",
"992.5 287.5 CURVE SMOOTH",
"998.833 308.5 OFFCURVE",
"1002 333.667 OFFCURVE",
"1002 363 CURVE SMOOTH",
"1002 1030 LINE SMOOTH",
"1002 1050 OFFCURVE",
"1000.667 1068.5 OFFCURVE",
"998 1085.5 CURVE SMOOTH",
"995.333 1102.5 OFFCURVE",
"991.667 1117.667 OFFCURVE",
"987 1131 CURVE",
"978.333 1152.333 OFFCURVE",
"968 1169.833 OFFCURVE",
"956 1183.5 CURVE SMOOTH",
"944 1197.167 OFFCURVE",
"930 1207.667 OFFCURVE",
"914 1215 CURVE",
"904 1219 OFFCURVE",
"893.333 1222.167 OFFCURVE",
"882 1224.5 CURVE SMOOTH",
"870.667 1226.833 OFFCURVE",
"858.667 1228 OFFCURVE",
"846 1228 CURVE",
"846 1456 LINE",
"846 1456 LINE"
);
},
{
closed = 1;
nodes = (
"1050 1714 LINE",
"1050 1580 LINE",
"1027 1580 LINE SMOOTH",
"995 1580 OFFCURVE",
"964.5 1582.833 OFFCURVE",
"935.5 1588.5 CURVE SMOOTH",
"906.5 1594.167 OFFCURVE",
"879.333 1601.333 OFFCURVE",
"854 1610 CURVE SMOOTH",
"824.667 1620 OFFCURVE",
"796.333 1631 OFFCURVE",
"769 1643 CURVE SMOOTH",
"741.667 1655 OFFCURVE",
"717 1666 OFFCURVE",
"695 1676 CURVE",
"677.667 1682.667 OFFCURVE",
"661.333 1688.333 OFFCURVE",
"646 1693 CURVE SMOOTH",
"630.667 1697.667 OFFCURVE",
"616 1700 OFFCURVE",
"602 1700 CURVE SMOOTH",
"586 1700 OFFCURVE",
"571.667 1698 OFFCURVE",
"559 1694 CURVE SMOOTH",
"546.333 1690 OFFCURVE",
"535.333 1683.667 OFFCURVE",
"526 1675 CURVE SMOOTH",
"517.333 1667 OFFCURVE",
"510.667 1656.5 OFFCURVE",
"506 1643.5 CURVE SMOOTH",
"501.333 1630.5 OFFCURVE",
"499 1615.333 OFFCURVE",
"499 1598 CURVE SMOOTH",
"499 1580 LINE",
"366 1580 LINE",
"366 1617 LINE SMOOTH",
"366 1652.333 OFFCURVE",
"370.667 1683.167 OFFCURVE",
"380 1709.5 CURVE SMOOTH",
"389.333 1735.833 OFFCURVE",
"403 1758 OFFCURVE",
"421 1776 CURVE SMOOTH",
"441 1795.333 OFFCURVE",
"466 1809.833 OFFCURVE",
"496 1819.5 CURVE SMOOTH",
"526 1829.167 OFFCURVE",
"560.333 1834 OFFCURVE",
"599 1834 CURVE SMOOTH",
"623 1834 OFFCURVE",
"646.5 1830.5 OFFCURVE",
"669.5 1823.5 CURVE SMOOTH",
"692.5 1816.5 OFFCURVE",
"715.667 1808.333 OFFCURVE",
"739 1799 CURVE SMOOTH",
"761 1789.667 OFFCURVE",
"783.667 1779.833 OFFCURVE",
"807 1769.5 CURVE SMOOTH",
"830.333 1759.167 OFFCURVE",
"854 1749.333 OFFCURVE",
"878 1740 CURVE",
"900.667 1732.667 OFFCURVE",
"924.333 1726.5 OFFCURVE",
"949 1721.5 CURVE SMOOTH",
"973.667 1716.5 OFFCURVE",
"1000 1714 OFFCURVE",
"1028 1714 CURVE SMOOTH",
"1050 1714 LINE"
);
},
{
closed = 1;
nodes = (
"565 1369 OFFCURVE",
"581.833 1394.833 OFFCURVE",
"593.5 1418.5 CURVE SMOOTH",
"605.167 1442.167 OFFCURVE",
"611 1466.667 OFFCURVE",
"611 1492 CURVE SMOOTH",
"611 1587 LINE",
"760 1587 LINE",
"760 1485 LINE SMOOTH",
"760 1465.667 OFFCURVE",
"756.167 1446 OFFCURVE",
"748.5 1426 CURVE SMOOTH",
"740.833 1406 OFFCURVE",
"730.667 1387 OFFCURVE",
"718 1369 CURVE SMOOTH",
"705.333 1351 OFFCURVE",
"690.833 1334.5 OFFCURVE",
"674.5 1319.5 CURVE SMOOTH",
"658.167 1304.5 OFFCURVE",
"641.667 1292.667 OFFCURVE",
"625 1284 CURVE",
"543 1341 LINE",
"543 1341 LINE"
);
}
);
width = 1229;
}
);
note = uni047C;
unicode = 047C;
},
{
glyphname = uni047D;
layers = (
{
layerId = "64CCE0F5-9A48-4B34-993D-1028D19A3A1F";
paths = (
{
closed = 1;
nodes = (
"854.667 1102 OFFCURVE",
"901.5 1094 OFFCURVE",
"946.5 1078 CURVE SMOOTH",
"991.5 1062 OFFCURVE",
"1031.333 1038 OFFCURVE",
"1066 1006 CURVE SMOOTH",
"1100 973.333 OFFCURVE",
"1127.167 932.5 OFFCURVE",
"1147.5 883.5 CURVE SMOOTH",
"1167.833 834.5 OFFCURVE",
"1178 777.333 OFFCURVE",
"1178 712 CURVE SMOOTH",
"1178 329 LINE SMOOTH",
"1178 269.667 OFFCURVE",
"1168.833 218.167 OFFCURVE",
"1150.5 174.5 CURVE SMOOTH",
"1132.167 130.833 OFFCURVE",
"1107.667 94.667 OFFCURVE",
"1077 66 CURVE SMOOTH",
"1045.667 36.667 OFFCURVE",
"1010 14.833 OFFCURVE",
"970 0.5 CURVE SMOOTH",
"930 -13.833 OFFCURVE",
"888.667 -21 OFFCURVE",
"846 -21 CURVE SMOOTH",
"815.333 -21 OFFCURVE",
"786.333 -15.5 OFFCURVE",
"759 -4.5 CURVE SMOOTH",
"731.667 6.5 OFFCURVE",
"707.333 22.333 OFFCURVE",
"686 43 CURVE SMOOTH",
"674.667 54.333 OFFCURVE",
"663.833 67.333 OFFCURVE",
"653.5 82 CURVE SMOOTH",
"643.167 96.667 OFFCURVE",
"634 112.667 OFFCURVE",
"626 130 CURVE",
"618.667 113.333 OFFCURVE",
"610.167 98 OFFCURVE",
"600.5 84 CURVE SMOOTH",
"590.833 70 OFFCURVE",
"580.667 57.667 OFFCURVE",
"570 47 CURVE SMOOTH",
"548 25 OFFCURVE",
"523.333 8.167 OFFCURVE",
"496 -3.5 CURVE SMOOTH",
"468.667 -15.167 OFFCURVE",
"439 -21 OFFCURVE",
"407 -21 CURVE SMOOTH",
"363.667 -21 OFFCURVE",
"322 -13.833 OFFCURVE",
"282 0.5 CURVE SMOOTH",
"242 14.833 OFFCURVE",
"206.667 36.667 OFFCURVE",
"176 66 CURVE SMOOTH",
"144.667 94.667 OFFCURVE",
"119.833 130.833 OFFCURVE",
"101.5 174.5 CURVE SMOOTH",
"83.167 218.167 OFFCURVE",
"74 269.667 OFFCURVE",
"74 329 CURVE SMOOTH",
"74 712 LINE SMOOTH",
"74 777.333 OFFCURVE",
"84.167 834.5 OFFCURVE",
"104.5 883.5 CURVE SMOOTH",
"124.833 932.5 OFFCURVE",
"152.333 973.333 OFFCURVE",
"187 1006 CURVE SMOOTH",
"221.667 1038 OFFCURVE",
"261.333 1062 OFFCURVE",
"306 1078 CURVE SMOOTH",
"350.667 1094 OFFCURVE",
"397.667 1102 OFFCURVE",
"447 1102 CURVE",
"447 909 LINE",
"427 909 OFFCURVE",
"409.667 906 OFFCURVE",
"395 900 CURVE SMOOTH",
"380.333 894 OFFCURVE",
"368.333 883.667 OFFCURVE",
"359 869 CURVE SMOOTH",
"349 854.333 OFFCURVE",
"341.833 834.167 OFFCURVE",
"337.5 808.5 CURVE SMOOTH",
"333.167 782.833 OFFCURVE",
"331 750.667 OFFCURVE",
"331 712 CURVE SMOOTH",
"331 353 LINE SMOOTH",
"331 321 OFFCURVE",
"333.333 293.833 OFFCURVE",
"338 271.5 CURVE SMOOTH",
"342.667 249.167 OFFCURVE",
"349.667 232 OFFCURVE",
"359 220 CURVE SMOOTH",
"365.667 211.333 OFFCURVE",
"373.5 205 OFFCURVE",
"382.5 201 CURVE SMOOTH",
"391.5 197 OFFCURVE",
"402 195 OFFCURVE",
"414 195 CURVE SMOOTH",
"430.667 195 OFFCURVE",
"445.167 196.833 OFFCURVE",
"457.5 200.5 CURVE SMOOTH",
"469.833 204.167 OFFCURVE",
"479.667 211 OFFCURVE",
"487 221 CURVE",
"491 227 OFFCURVE",
"494.5 234.167 OFFCURVE",
"497.5 242.5 CURVE SMOOTH",
"500.5 250.833 OFFCURVE",
"503 260.667 OFFCURVE",
"505 272 CURVE SMOOTH",
"506.333 280 OFFCURVE",
"507.333 289.167 OFFCURVE",
"508 299.5 CURVE SMOOTH",
"508.667 309.833 OFFCURVE",
"509 321 OFFCURVE",
"509 333 CURVE SMOOTH",
"509 577 LINE",
"743 577 LINE",
"743 333 LINE SMOOTH",
"743 322.333 OFFCURVE",
"743.333 312.167 OFFCURVE",
"744 302.5 CURVE SMOOTH",
"744.667 292.833 OFFCURVE",
"745.667 284.333 OFFCURVE",
"747 277 CURVE SMOOTH",
"749 264.333 OFFCURVE",
"751.833 253.333 OFFCURVE",
"755.5 244 CURVE SMOOTH",
"759.167 234.667 OFFCURVE",
"763.667 227 OFFCURVE",
"769 221 CURVE SMOOTH",
"777.667 211 OFFCURVE",
"788.333 204.167 OFFCURVE",
"801 200.5 CURVE SMOOTH",
"813.667 196.833 OFFCURVE",
"828.667 195 OFFCURVE",
"846 195 CURVE SMOOTH",
"858.667 195 OFFCURVE",
"869.5 197.5 OFFCURVE",
"878.5 202.5 CURVE SMOOTH",
"887.5 207.5 OFFCURVE",
"895 215 OFFCURVE",
"901 225 CURVE SMOOTH",
"908.333 237.667 OFFCURVE",
"913.5 254.667 OFFCURVE",
"916.5 276 CURVE SMOOTH",
"919.5 297.333 OFFCURVE",
"921 323 OFFCURVE",
"921 353 CURVE SMOOTH",
"921 712 LINE SMOOTH",
"921 750.667 OFFCURVE",
"918.833 782.833 OFFCURVE",
"914.5 808.5 CURVE SMOOTH",
"910.167 834.167 OFFCURVE",
"903.333 854.333 OFFCURVE",
"894 869 CURVE SMOOTH",
"884 883.667 OFFCURVE",
"871.833 894 OFFCURVE",
"857.5 900 CURVE SMOOTH",
"843.167 906 OFFCURVE",
"826 909 OFFCURVE",
"806 909 CURVE",
"806 1102 LINE",
"806 1102 LINE"
);
},
{
closed = 1;
nodes = (
"309 1248 LINE",
"309 1285 LINE SMOOTH",
"309 1320.333 OFFCURVE",
"313.833 1351.167 OFFCURVE",
"323.5 1377.5 CURVE SMOOTH",
"333.167 1403.833 OFFCURVE",
"347 1426 OFFCURVE",
"365 1444 CURVE SMOOTH",
"385.667 1463.333 OFFCURVE",
"411.333 1477.833 OFFCURVE",
"442 1487.5 CURVE SMOOTH",
"472.667 1497.167 OFFCURVE",
"507.333 1502 OFFCURVE",
"546 1502 CURVE SMOOTH",
"568.667 1502 OFFCURVE",
"590.5 1499 OFFCURVE",
"611.5 1493 CURVE SMOOTH",
"632.5 1487 OFFCURVE",
"653.667 1479.667 OFFCURVE",
"675 1471 CURVE SMOOTH",
"695.667 1462.333 OFFCURVE",
"716.667 1452.667 OFFCURVE",
"738 1442 CURVE SMOOTH",
"759.333 1431.333 OFFCURVE",
"782 1421.667 OFFCURVE",
"806 1413 CURVE SMOOTH",
"829.333 1404.333 OFFCURVE",
"854.167 1397 OFFCURVE",
"880.5 1391 CURVE SMOOTH",
"906.833 1385 OFFCURVE",
"935.333 1382 OFFCURVE",
"966 1382 CURVE SMOOTH",
"1009 1382 LINE",
"1009 1248 LINE",
"964 1248 LINE SMOOTH",
"932.667 1248 OFFCURVE",
"903.333 1250.667 OFFCURVE",
"876 1256 CURVE SMOOTH",
"848.667 1261.333 OFFCURVE",
"823 1267.667 OFFCURVE",
"799 1275 CURVE",
"767 1287 OFFCURVE",
"737.833 1299.167 OFFCURVE",
"711.5 1311.5 CURVE SMOOTH",
"685.167 1323.833 OFFCURVE",
"660.333 1335 OFFCURVE",
"637 1345 CURVE SMOOTH",
"621.667 1351.667 OFFCURVE",
"606.833 1357.167 OFFCURVE",
"592.5 1361.5 CURVE SMOOTH",
"578.167 1365.833 OFFCURVE",
"564 1368 OFFCURVE",
"550 1368 CURVE SMOOTH",
"532 1368 OFFCURVE",
"515.667 1365.333 OFFCURVE",
"501 1360 CURVE SMOOTH",
"486.333 1354.667 OFFCURVE",
"474.667 1346.667 OFFCURVE",
"466 1336 CURVE SMOOTH",
"459.333 1327.333 OFFCURVE",
"454.167 1317.333 OFFCURVE",
"450.5 1306 CURVE SMOOTH",
"446.833 1294.667 OFFCURVE",
"445 1281.333 OFFCURVE",
"445 1266 CURVE SMOOTH",
"445 1248 LINE",
"309 1248 LINE"
);
},
{
closed = 1;
nodes = (
"541 1030 OFFCURVE",
"557.833 1055.833 OFFCURVE",
"569.5 1079.5 CURVE SMOOTH",
"581.167 1103.167 OFFCURVE",
"587 1127.667 OFFCURVE",
"587 1153 CURVE SMOOTH",
"587 1248 LINE",
"736 1248 LINE",
"736 1146 LINE SMOOTH",
"736 1126.667 OFFCURVE",
"732.167 1107 OFFCURVE",
"724.5 1087 CURVE SMOOTH",
"716.833 1067 OFFCURVE",
"706.667 1048 OFFCURVE",
"694 1030 CURVE SMOOTH",
"681.333 1012 OFFCURVE",
"666.833 995.5 OFFCURVE",
"650.5 980.5 CURVE SMOOTH",
"634.167 965.5 OFFCURVE",
"617.667 953.667 OFFCURVE",
"601 945 CURVE",
"519 1002 LINE",
"519 1002 LINE"
);
}
);
width = 1229;
}
);
note = uni047D;
unicode = 047D;
},
{
glyphname = uni047E;
layers = (
{
layerId = "64CCE0F5-9A48-4B34-993D-1028D19A3A1F";
paths = (
{
closed = 1;
nodes = (
"263 1799 LINE",
"1007 1799 LINE",
"1007 1687 LINE",
"717 1687 LINE",
"717 1560 LINE",
"536 1560 LINE",
"536 1687 LINE",
"263 1687 LINE",
"263 1799 LINE"
);
},
{
closed = 1;
nodes = (
"1197 1456 LINE",
"1197 369 LINE SMOOTH",
"1197 305 OFFCURVE",
"1188.667 248.667 OFFCURVE",
"1172 200 CURVE SMOOTH",
"1155.333 151.333 OFFCURVE",
"1132 110.667 OFFCURVE",
"1102 78 CURVE SMOOTH",
"1072 45.333 OFFCURVE",
"1036.667 20.667 OFFCURVE",
"996 4 CURVE SMOOTH",
"955.333 -12.667 OFFCURVE",
"911 -21 OFFCURVE",
"863 -21 CURVE SMOOTH",
"826.333 -21 OFFCURVE",
"792.333 -14.833 OFFCURVE",
"761 -2.5 CURVE SMOOTH",
"729.667 9.833 OFFCURVE",
"702 28.333 OFFCURVE",
"678 53 CURVE SMOOTH",
"670.667 60.333 OFFCURVE",
"663.667 68.333 OFFCURVE",
"657 77 CURVE SMOOTH",
"650.333 85.667 OFFCURVE",
"644 95 OFFCURVE",
"638 105 CURVE",
"631.333 93 OFFCURVE",
"623.833 81.833 OFFCURVE",
"615.5 71.5 CURVE SMOOTH",
"607.167 61.167 OFFCURVE",
"598.667 52 OFFCURVE",
"590 44 CURVE",
"568 22 OFFCURVE",
"543 5.667 OFFCURVE",
"515 -5 CURVE SMOOTH",
"487 -15.667 OFFCURVE",
"457 -21 OFFCURVE",
"425 -21 CURVE SMOOTH",
"375 -21 OFFCURVE",
"328.667 -12.667 OFFCURVE",
"286 4 CURVE SMOOTH",
"243.333 20.667 OFFCURVE",
"206.667 45.333 OFFCURVE",
"176 78 CURVE SMOOTH",
"144.667 110.667 OFFCURVE",
"120.333 151.333 OFFCURVE",
"103 200 CURVE SMOOTH",
"85.667 248.667 OFFCURVE",
"77 305 OFFCURVE",
"77 369 CURVE SMOOTH",
"77 1456 LINE",
"336 1456 LINE",
"336 369 LINE SMOOTH",
"336 333 OFFCURVE",
"339 303.333 OFFCURVE",
"345 280 CURVE SMOOTH",
"351 256.667 OFFCURVE",
"360 239 OFFCURVE",
"372 227 CURVE",
"378.667 219.667 OFFCURVE",
"386.5 214.167 OFFCURVE",
"395.5 210.5 CURVE SMOOTH",
"404.5 206.833 OFFCURVE",
"414.333 205 OFFCURVE",
"425 205 CURVE SMOOTH",
"435 205 OFFCURVE",
"444.333 207 OFFCURVE",
"453 211 CURVE SMOOTH",
"461.667 215 OFFCURVE",
"469.333 221 OFFCURVE",
"476 229 CURVE SMOOTH",
"482 236.333 OFFCURVE",
"487.167 245.667 OFFCURVE",
"491.5 257 CURVE SMOOTH",
"495.833 268.333 OFFCURVE",
"499.333 281.333 OFFCURVE",
"502 296 CURVE",
"503.333 306 OFFCURVE",
"504.5 317.167 OFFCURVE",
"505.5 329.5 CURVE SMOOTH",
"506.5 341.833 OFFCURVE",
"507 355 OFFCURVE",
"507 369 CURVE SMOOTH",
"507 1456 LINE",
"767 1456 LINE",
"767 369 LINE SMOOTH",
"767 355.667 OFFCURVE",
"767.5 343 OFFCURVE",
"768.5 331 CURVE SMOOTH",
"769.5 319 OFFCURVE",
"771 308 OFFCURVE",
"773 298 CURVE SMOOTH",
"775.667 282.667 OFFCURVE",
"779.5 269.333 OFFCURVE",
"784.5 258 CURVE SMOOTH",
"789.5 246.667 OFFCURVE",
"795.333 237.333 OFFCURVE",
"802 230 CURVE SMOOTH",
"810 221.333 OFFCURVE",
"819.167 215 OFFCURVE",
"829.5 211 CURVE SMOOTH",
"839.833 207 OFFCURVE",
"851 205 OFFCURVE",
"863 205 CURVE SMOOTH",
"871 205 OFFCURVE",
"878.667 206.5 OFFCURVE",
"886 209.5 CURVE SMOOTH",
"893.333 212.5 OFFCURVE",
"899.667 217.333 OFFCURVE",
"905 224 CURVE",
"915.667 236 OFFCURVE",
"923.667 253.833 OFFCURVE",
"929 277.5 CURVE SMOOTH",
"934.333 301.167 OFFCURVE",
"937 331.667 OFFCURVE",
"937 369 CURVE SMOOTH",
"937 1456 LINE",
"1197 1456 LINE"
);
}
);
width = 1229;
}
);
note = uni047E;
unicode = 047E;
},
{
glyphname = uni047F;
layers = (
{
layerId = "64CCE0F5-9A48-4B34-993D-1028D19A3A1F";
paths = (
{
closed = 1;
nodes = (
"259 1457 LINE",
"1003 1457 LINE",
"1003 1345 LINE",
"713 1345 LINE",
"713 1218 LINE",
"532 1218 LINE",
"532 1345 LINE",
"259 1345 LINE",
"259 1457 LINE"
);
},
{
closed = 1;
nodes = (
"1165 1082 LINE",
"1165 393 LINE SMOOTH",
"1165 325 OFFCURVE",
"1157.167 265.167 OFFCURVE",
"1141.5 213.5 CURVE SMOOTH",
"1125.833 161.833 OFFCURVE",
"1103.667 118.667 OFFCURVE",
"1075 84 CURVE SMOOTH",
"1046.333 49.333 OFFCURVE",
"1012.333 23.167 OFFCURVE",
"973 5.5 CURVE SMOOTH",
"933.667 -12.167 OFFCURVE",
"890.333 -21 OFFCURVE",
"843 -21 CURVE SMOOTH",
"814.333 -21 OFFCURVE",
"787.667 -17.167 OFFCURVE",
"763 -9.5 CURVE SMOOTH",
"738.333 -1.833 OFFCURVE",
"715.667 9.667 OFFCURVE",
"695 25 CURVE SMOOTH",
"679.667 36.333 OFFCURVE",
"665.667 49.5 OFFCURVE",
"653 64.5 CURVE SMOOTH",
"640.333 79.5 OFFCURVE",
"629 96.333 OFFCURVE",
"619 115 CURVE",
"609.667 97.667 OFFCURVE",
"599.333 81.833 OFFCURVE",
"588 67.5 CURVE SMOOTH",
"576.667 53.167 OFFCURVE",
"564.667 40.667 OFFCURVE",
"552 30 CURVE SMOOTH",
"531.333 13.333 OFFCURVE",
"508.333 0.667 OFFCURVE",
"483 -8 CURVE SMOOTH",
"457.667 -16.667 OFFCURVE",
"431 -21 OFFCURVE",
"403 -21 CURVE SMOOTH",
"354.333 -21 OFFCURVE",
"309.5 -12.167 OFFCURVE",
"268.5 5.5 CURVE SMOOTH",
"227.5 23.167 OFFCURVE",
"192.333 49.333 OFFCURVE",
"163 84 CURVE SMOOTH",
"133.667 118.667 OFFCURVE",
"110.667 161.833 OFFCURVE",
"94 213.5 CURVE SMOOTH",
"77.333 265.167 OFFCURVE",
"69 325 OFFCURVE",
"69 393 CURVE SMOOTH",
"69 1082 LINE",
"322 1082 LINE",
"322 393 LINE SMOOTH",
"322 357.667 OFFCURVE",
"324 327.667 OFFCURVE",
"328 303 CURVE SMOOTH",
"332 278.333 OFFCURVE",
"337.667 258.333 OFFCURVE",
"345 243 CURVE SMOOTH",
"351.667 229 OFFCURVE",
"359.833 218.667 OFFCURVE",
"369.5 212 CURVE SMOOTH",
"379.167 205.333 OFFCURVE",
"390.333 202 OFFCURVE",
"403 202 CURVE SMOOTH",
"420.333 202 OFFCURVE",
"435 207 OFFCURVE",
"447 217 CURVE SMOOTH",
"459 227 OFFCURVE",
"468.333 242.333 OFFCURVE",
"475 263 CURVE SMOOTH",
"480.333 278.333 OFFCURVE",
"484.167 296.833 OFFCURVE",
"486.5 318.5 CURVE SMOOTH",
"488.833 340.167 OFFCURVE",
"490 365 OFFCURVE",
"490 393 CURVE SMOOTH",
"490 1082 LINE",
"749 1082 LINE",
"749 393 LINE SMOOTH",
"749 361.667 OFFCURVE",
"750.667 334.333 OFFCURVE",
"754 311 CURVE SMOOTH",
"757.333 287.667 OFFCURVE",
"762.333 268.333 OFFCURVE",
"769 253 CURVE SMOOTH",
"777 235.667 OFFCURVE",
"787.167 222.833 OFFCURVE",
"799.5 214.5 CURVE SMOOTH",
"811.833 206.167 OFFCURVE",
"826.333 202 OFFCURVE",
"843 202 CURVE SMOOTH",
"853.667 202 OFFCURVE",
"863.167 205.167 OFFCURVE",
"871.5 211.5 CURVE SMOOTH",
"879.833 217.833 OFFCURVE",
"887 227.667 OFFCURVE",
"893 241 CURVE",
"899 256.333 OFFCURVE",
"903.667 276.667 OFFCURVE",
"907 302 CURVE SMOOTH",
"910.333 327.333 OFFCURVE",
"912 357.667 OFFCURVE",
"912 393 CURVE SMOOTH",
"912 1082 LINE",
"1165 1082 LINE"
);
}
);
width = 1229;
}
);
note = uni047F;
unicode = 047F;
},
